<svg width="260" height="260" viewBox="0 0 260 260" fill="none" xmlns="http://www.w3.org/2000/svg">
<path d="M259 130.001C259 101.353 249.464 73.5197 231.895 50.891C214.327 28.2624 189.726 12.1256 161.972 5.02539L130 130.001H259Z" fill="#FFAD33" stroke="white"/>
<path d="M161.972 5.02474C145.048 0.695305 127.421 -0.151837 110.161 2.53469C92.9 5.22121 76.3648 11.3854 61.5576 20.6535L130 130L161.972 5.02474Z" fill="#FCE549" stroke="white"/>
<path d="M61.5577 20.6543C43.5418 31.9308 28.5913 47.4841 18.0352 65.9313C7.47918 84.3786 1.64469 105.148 1.05044 126.394C0.45619 147.64 5.12059 168.703 14.629 187.711C24.1374 206.72 38.1951 223.085 55.5525 235.35L130 130.001L61.5577 20.6543Z" fill="#18A0FB" stroke="white"/>
<path d="M55.5527 235.35C74.8641 248.997 97.555 257.073 121.146 258.696C144.737 260.319 168.32 255.426 189.318 244.553C210.317 233.679 227.922 217.243 240.211 197.041C252.5 176.838 259 153.647 259 130H130L55.5527 235.35Z" fill="#1C722C" stroke="white"/>
</svg>
