<svg width="478" height="356" viewBox="0 0 478 356" fill="none" xmlns="http://www.w3.org/2000/svg">
<path d="M477.775 312.847H0V313.086H477.775V312.847Z" fill="#EBEBEB"/>
<path d="M371.183 320.023H339.535V320.262H371.183V320.023Z" fill="#EBEBEB"/>
<path d="M288.577 328.107H246.504V328.346H288.577V328.107Z" fill="#EBEBEB"/>
<path d="M414.938 328.891H372.148V329.13H414.938V328.891Z" fill="#EBEBEB"/>
<path d="M92.5739 319.785H51.3037V320.024H92.5739V319.785Z" fill="#EBEBEB"/>
<path d="M107.137 319.785H101.088V320.024H107.137V319.785Z" fill="#EBEBEB"/>
<path d="M216.318 323.817H126.802V324.056H216.318V323.817Z" fill="#EBEBEB"/>
<path d="M226.466 270.23H41.9588C40.5134 270.227 39.1281 269.651 38.1069 268.628C37.0857 267.605 36.5122 266.219 36.5122 264.773V5.40842C36.5248 3.97129 37.1039 2.59717 38.1237 1.58451C39.1435 0.571857 40.5217 0.00246187 41.9588 0H226.466C227.913 0 229.301 0.574848 230.324 1.59808C231.347 2.62132 231.922 4.00912 231.922 5.45619V264.773C231.922 266.221 231.347 267.608 230.324 268.632C229.301 269.655 227.913 270.23 226.466 270.23ZM41.9588 0.191111C40.5768 0.193642 39.2522 0.744436 38.2758 1.7226C37.2995 2.70076 36.7511 4.02635 36.7511 5.40842V264.773C36.7511 266.156 37.2995 267.481 38.2758 268.459C39.2522 269.437 40.5768 269.988 41.9588 269.991H226.466C227.849 269.988 229.175 269.438 230.152 268.46C231.13 267.482 231.681 266.156 231.683 264.773V5.40842C231.681 4.02548 231.13 2.6999 230.152 1.72201C229.175 0.744126 227.849 0.193637 226.466 0.191111H41.9588Z" fill="#EBEBEB"/>
<path d="M433.163 270.23H248.647C247.2 270.227 245.814 269.651 244.791 268.629C243.769 267.606 243.193 266.22 243.19 264.773V5.40842C243.206 3.97042 243.787 2.5963 244.808 1.58391C245.829 0.571523 247.209 0.00243502 248.647 0H433.163C434.599 0.00497316 435.975 0.575479 436.992 1.58786C438.01 2.60025 438.588 3.97294 438.601 5.40842V264.773C438.601 266.217 438.028 267.602 437.009 268.625C435.99 269.648 434.607 270.225 433.163 270.23ZM248.647 0.191111C247.264 0.193637 245.938 0.744126 244.96 1.72201C243.982 2.6999 243.432 4.02548 243.429 5.40842V264.773C243.432 266.156 243.982 267.482 244.96 268.46C245.938 269.438 247.264 269.988 248.647 269.991H433.163C434.546 269.988 435.872 269.438 436.85 268.46C437.828 267.482 438.378 266.156 438.381 264.773V5.40842C438.378 4.02548 437.828 2.6999 436.85 1.72201C435.872 0.744126 434.546 0.193637 433.163 0.191111H248.647Z" fill="#EBEBEB"/>
<path d="M326.532 187.269H415.838V23.0763H326.532V187.269Z" fill="#E6E6E6"/>
<path d="M316.346 187.269H413.401V23.0763H316.346V187.269Z" fill="#F0F0F0"/>
<path d="M405.279 179.128V31.1987L324.487 31.1987V179.128H405.279Z" fill="white"/>
<path d="M121.632 29.7178H51.3037V111.456H121.632V29.7178Z" fill="#E0E0E0"/>
<path d="M125.835 29.7178H53.6816V111.456H125.835V29.7178Z" fill="#F5F5F5"/>
<path d="M119.787 105.015V36.1582L59.7212 36.1582L59.7212 105.015H119.787Z" fill="white"/>
<path d="M220.284 77.4282H149.955V159.166H220.284V77.4282Z" fill="#E0E0E0"/>
<path d="M224.488 77.4282H152.334V159.166H224.488V77.4282Z" fill="#F5F5F5"/>
<path d="M218.439 152.735V83.8784H158.374V152.735H218.439Z" fill="white"/>
<path d="M180.072 227.24C179.594 227.24 179.116 227.24 178.619 227.288C175.57 227.506 172.608 228.395 169.943 229.892C167.278 231.389 164.976 233.456 163.203 235.946C161.43 238.435 160.229 241.286 159.686 244.294C159.143 247.302 159.272 250.393 160.062 253.345C162.327 262.158 163.419 271.232 163.311 280.33V306.837C163.311 307.295 163.402 307.748 163.577 308.17C163.752 308.593 164.009 308.977 164.333 309.3C164.657 309.623 165.042 309.879 165.465 310.053C165.888 310.228 166.341 310.317 166.799 310.315H250.888V227.24H180.072Z" fill="#F0F0F0"/>
<path d="M271.635 247.965C271.515 242.671 269.372 237.624 265.646 233.861C261.921 230.097 256.896 227.904 251.603 227.73C246.311 227.556 241.152 229.416 237.188 232.927C233.224 236.438 230.755 241.334 230.288 246.609C230.144 248.879 230.37 251.157 230.957 253.355C233.217 262.169 234.309 271.241 234.206 280.34V306.847C234.206 307.769 234.572 308.654 235.224 309.306C235.877 309.958 236.761 310.325 237.684 310.325H264.248C265.171 310.325 266.055 309.958 266.708 309.306C267.36 308.654 267.726 307.769 267.726 306.847V278.792C267.648 270.254 268.728 261.745 270.937 253.498C271.418 251.694 271.652 249.833 271.635 247.965Z" fill="#F5F5F5"/>
<path d="M222.366 259.881H146.858V310.324H222.366V259.881Z" fill="#F0F0F0"/>
<path d="M156.424 188.435H86.7262C78.0593 188.435 72.1731 195.458 73.5778 204.115L84.452 271.281H185.521L174.646 204.115C173.242 195.458 165.081 188.435 156.424 188.435Z" fill="#EBEBEB"/>
<path d="M176.919 188.435H105.712C97.4651 188.435 91.8656 195.123 93.2034 203.36L104.202 271.281H205.261L194.262 203.36C192.925 195.123 185.166 188.435 176.919 188.435Z" fill="#F5F5F5"/>
<path d="M151.798 255.275H221.401C222.607 255.275 223.764 255.755 224.617 256.608C225.47 257.461 225.949 258.618 225.949 259.824V271.29C225.949 272.497 225.47 273.654 224.617 274.507C223.764 275.36 222.607 275.839 221.401 275.839H151.798C151.438 275.839 151.093 275.696 150.839 275.441C150.584 275.187 150.441 274.842 150.441 274.482V256.632C150.441 256.272 150.584 255.927 150.839 255.673C151.093 255.418 151.438 255.275 151.798 255.275Z" fill="#EBEBEB"/>
<path d="M77.0081 227.24C76.5304 227.24 76.0526 227.24 75.5557 227.288C70.5702 227.664 65.8874 229.825 62.3652 233.373C58.843 236.922 56.7174 241.621 56.3778 246.609C56.2343 248.879 56.4602 251.157 57.0467 253.355C59.3111 262.168 60.4034 271.241 60.2956 280.34V306.847C60.2956 307.769 60.662 308.654 61.3143 309.306C61.9666 309.958 62.8513 310.325 63.7738 310.325H147.862V227.24H77.0081Z" fill="#F0F0F0"/>
<path d="M168.568 247.965C168.565 245.017 167.933 242.104 166.713 239.42C165.494 236.736 163.716 234.343 161.497 232.401C159.279 230.459 156.672 229.013 153.85 228.159C151.028 227.306 148.057 227.064 145.134 227.451C142.212 227.838 139.405 228.844 136.903 230.402C134.4 231.96 132.259 234.035 130.622 236.487C128.985 238.939 127.891 241.712 127.411 244.621C126.932 247.529 127.079 250.507 127.843 253.355C130.103 262.168 131.195 271.241 131.092 280.339V306.846C131.092 307.769 131.458 308.653 132.11 309.306C132.763 309.958 133.647 310.325 134.57 310.325H161.134C162.057 310.325 162.941 309.958 163.594 309.306C164.246 308.653 164.612 307.769 164.612 306.846V278.791C164.536 270.255 165.613 261.746 167.814 253.498C168.318 251.697 168.572 249.835 168.568 247.965Z" fill="#F5F5F5"/>
<path d="M249.399 312.847H78.489C77.8199 312.847 77.1783 312.582 76.7052 312.108C76.2321 311.635 75.9663 310.994 75.9663 310.325H251.96C251.96 310.659 251.893 310.99 251.764 311.299C251.635 311.608 251.446 311.887 251.207 312.122C250.969 312.357 250.686 312.542 250.376 312.666C250.065 312.791 249.733 312.852 249.399 312.847Z" fill="#E0E0E0"/>
<path d="M433.569 273.966H392.442V277.339H433.569V273.966Z" fill="#E6E6E6"/>
<path d="M314.874 312.847H322.471V235.19H314.874V312.847Z" fill="#E6E6E6"/>
<path d="M288.574 277.349H392.442V273.976H288.574V277.349Z" fill="#F5F5F5"/>
<path d="M433.569 292.437H392.442V295.81H433.569V292.437Z" fill="#E6E6E6"/>
<path d="M288.574 295.81H392.442V292.436H288.574V295.81Z" fill="#F5F5F5"/>
<path d="M433.569 237.034H392.442V240.407H433.569V237.034Z" fill="#E6E6E6"/>
<path d="M288.574 240.417H392.442V237.043H288.574V240.417Z" fill="#F5F5F5"/>
<path d="M433.569 255.504H392.442V258.877H433.569V255.504Z" fill="#E6E6E6"/>
<path d="M288.574 258.878H392.442V255.505H288.574V258.878Z" fill="#F5F5F5"/>
<path d="M418.743 312.847H426.34V235.19H418.743V312.847Z" fill="#E6E6E6"/>
<path d="M384.846 312.847H392.442V235.19H384.846V312.847Z" fill="#F5F5F5"/>
<path d="M288.576 312.847H296.173V235.19H288.576V312.847Z" fill="#F5F5F5"/>
<path d="M363.282 234.282H367.343V188.998H363.282V234.282Z" fill="#E6E6E6"/>
<path d="M363.806 234.244H364.953V188.96H363.806V234.244Z" fill="#F0F0F0"/>
<path d="M350.267 237.034H380.309C380.309 236.02 379.907 235.048 379.19 234.331C378.473 233.615 377.501 233.212 376.487 233.212H354.06C353.047 233.212 352.075 233.615 351.358 234.331C350.641 235.048 350.238 236.02 350.238 237.034H350.267Z" fill="#F0F0F0"/>
<path d="M358.532 235.916H360.051C360.278 235.916 360.462 235.732 360.462 235.505V232.342C360.462 232.115 360.278 231.931 360.051 231.931H358.532C358.305 231.931 358.121 232.115 358.121 232.342V235.505C358.121 235.732 358.305 235.916 358.532 235.916Z" fill="#F0F0F0"/>
<path d="M347.126 199.71H383.504L380.026 170.7C379.832 169.061 379.044 167.55 377.811 166.453C376.579 165.356 374.987 164.749 373.337 164.747H357.312C355.663 164.753 354.074 165.362 352.842 166.458C351.61 167.554 350.821 169.063 350.623 170.7L347.126 199.71Z" fill="#F5F5F5"/>
<path d="M238.887 356C341.21 356 424.159 351.157 424.159 345.183C424.159 339.209 341.21 334.366 238.887 334.366C136.564 334.366 53.6152 339.209 53.6152 345.183C53.6152 351.157 136.564 356 238.887 356Z" fill="#F5F5F5"/>
<path d="M282.567 102.598L282.232 103.725L281.927 104.681C281.716 105.321 281.487 105.913 281.258 106.525C280.799 107.719 280.302 108.885 279.757 110.041C278.697 112.34 277.501 114.574 276.174 116.73C275.515 117.81 274.817 118.852 274.11 119.893C273.403 120.935 272.648 121.938 271.855 122.922C270.3 124.912 268.631 126.81 266.857 128.608L266.485 128.99C265.971 129.517 265.361 129.942 264.688 130.242C262.698 131.113 260.533 131.515 258.363 131.417C256.472 131.315 254.615 130.878 252.878 130.127C251.422 129.512 250.045 128.722 248.778 127.776C247.642 126.946 246.566 126.036 245.558 125.053C243.728 123.221 242.077 121.218 240.628 119.071C239.92 118.039 239.271 116.979 238.65 115.909C238.028 114.838 237.493 113.768 236.91 112.535C236.53 111.732 236.442 110.822 236.66 109.96C236.879 109.099 237.391 108.341 238.108 107.816C238.825 107.291 239.703 107.032 240.59 107.084C241.477 107.137 242.318 107.496 242.969 108.102L243.217 108.331L245.549 110.471C246.342 111.198 247.154 111.895 247.966 112.564C249.504 113.869 251.133 115.063 252.84 116.138C254.174 117.028 255.656 117.675 257.216 118.049C257.613 118.161 258.033 118.161 258.43 118.049C258.561 117.99 258.668 117.889 258.735 117.762L256.538 119.425C257.751 117.781 258.926 116.119 260.006 114.399C261.086 112.679 262.118 110.901 263.083 109.115C264.048 107.328 264.937 105.483 265.759 103.639C266.179 102.684 266.552 101.785 266.934 100.868L267.889 98.3646L268.157 97.6766C268.92 95.9142 270.318 94.5033 272.073 93.7248C273.829 92.9462 275.813 92.8569 277.632 93.4747C279.45 94.0924 280.969 95.372 281.887 97.0588C282.805 98.7457 283.055 100.716 282.586 102.579L282.567 102.598Z" fill="#263238"/>
<path d="M239.615 112.583L233.156 110.338L231.799 101.489C231.799 101.489 242.625 104.356 242.577 109.573L239.615 112.583Z" fill="#CE7A63"/>
<path d="M277.665 66.4872C273.451 65.0061 267.632 59.9608 269.915 53.4344C271.655 48.4847 278.095 48.0451 280.627 49.5262C283.159 51.0073 283.264 47.9687 286.504 46.8029C289.743 45.6371 292.027 48.5707 293.67 50.1091C295.314 51.6475 297.235 50.4818 299.671 50.5869C302.108 50.692 303.847 53.8835 302.49 56.2151C300.101 60.3048 304.048 62.9039 301.057 66.0955C296.652 70.7299 300.101 75.2783 293.89 79.8936C290.116 82.722 279.394 77.5334 277.665 66.4872Z" fill="#263238"/>
<path d="M277.586 70.8066C277.429 70.9001 277.253 70.9557 277.07 70.969C276.754 70.9955 276.44 70.896 276.196 70.6919C275.953 70.4879 275.8 70.1959 275.771 69.8797C275.561 67.9833 275.808 66.0642 276.493 64.2834C277.178 62.5026 278.281 60.9122 279.708 59.6457C279.831 59.5474 279.973 59.4747 280.125 59.4319C280.277 59.3892 280.436 59.3773 280.593 59.3968C280.75 59.4164 280.901 59.4671 281.038 59.546C281.174 59.6248 281.294 59.7302 281.39 59.8559C281.488 59.9788 281.561 60.1198 281.604 60.2709C281.648 60.422 281.661 60.5803 281.643 60.7365C281.626 60.8928 281.577 61.044 281.501 61.1815C281.424 61.319 281.322 61.44 281.198 61.5377C280.082 62.5536 279.225 63.8217 278.698 65.2362C278.171 66.6507 277.99 68.1707 278.169 69.6695C278.189 69.8946 278.144 70.1206 278.041 70.3217C277.938 70.5228 277.781 70.6908 277.586 70.8066Z" fill="#263238"/>
<path d="M270.721 93.042C270.721 93.042 262.245 114.733 270.291 155.153H308.714C308.981 149.257 305.274 120.485 310.959 92.698C306.711 91.8811 302.415 91.3385 298.097 91.0736C292.659 90.758 287.206 90.758 281.767 91.0736C278.039 91.4392 274.346 92.0974 270.721 93.042Z" fill="white"/>
<path d="M296.479 72.6221C295.447 77.8776 294.425 87.5095 298.094 91.0164C298.094 91.0164 291.94 96.0044 285.471 101.05C284.042 99.838 282.949 98.2777 282.3 96.5199C281.65 94.7622 281.465 92.8665 281.764 91.0164C287.621 89.6213 287.497 85.2831 286.455 81.1838L296.479 72.6221Z" fill="#CE7A63"/>
<path opacity="0.2" d="M292.401 76.1479L286.467 81.2124C286.72 82.1511 286.89 83.1104 286.973 84.079C288.884 85.8946 292.286 81.2984 292.525 78.9573C292.651 78.0209 292.609 77.0695 292.401 76.1479Z" fill="black"/>
<path d="M296.412 63.7831C296.679 70.9115 297.195 75.0682 293.984 79.0719C289.14 85.0728 280.081 82.6934 277.692 75.7848C275.542 69.5737 275.466 58.9671 282.126 55.4698C283.587 54.691 285.223 54.2984 286.879 54.3293C288.534 54.3602 290.154 54.8136 291.585 55.6463C293.016 56.4791 294.211 57.6637 295.055 59.0877C295.9 60.5118 296.367 62.128 296.412 63.7831Z" fill="#CE7A63"/>
<path d="M296.221 70.3767C294.262 74.1989 292.007 62.1112 292.58 60.0949C285.653 62.006 275.027 61.3754 275.849 56.5403C276.804 51.0841 283.149 50.8739 290.182 51.5428C301.792 52.6608 298.342 66.2296 296.221 70.3767Z" fill="#263238"/>
<path d="M292.789 71.0548C292.608 71.0651 292.428 71.0324 292.263 70.9592C292.118 70.8959 291.987 70.8047 291.877 70.6907C291.768 70.5767 291.682 70.4422 291.624 70.2949C291.566 70.1475 291.538 69.9903 291.541 69.8321C291.544 69.674 291.579 69.5179 291.642 69.373C292.365 67.608 293.501 66.0421 294.954 64.8067C296.407 63.5714 298.135 62.7026 299.994 62.2733C300.304 62.2174 300.624 62.2866 300.883 62.4656C301.143 62.6446 301.321 62.9189 301.379 63.2288C301.43 63.5385 301.359 63.8558 301.181 64.1142C301.002 64.3725 300.731 64.5518 300.424 64.6144C298.953 64.978 297.591 65.6881 296.45 66.6855C295.31 67.6829 294.425 68.9385 293.869 70.3477C293.777 70.558 293.626 70.7371 293.434 70.8627C293.242 70.9884 293.018 71.0551 292.789 71.0548Z" fill="#263238"/>
<path d="M299.968 68.7995C299.591 70.5163 298.598 72.0356 297.178 73.0708C295.315 74.3704 293.843 72.7746 293.891 70.529C293.939 68.5128 294.971 65.4169 297.054 65.0155C299.137 64.6142 300.436 66.6877 299.968 68.7995Z" fill="#CE7A63"/>
<path d="M266.39 335.752C265.501 335.972 264.613 336.058 264.231 335.752C264.133 335.662 264.066 335.543 264.038 335.413C264.011 335.283 264.025 335.147 264.078 335.026C264.11 334.916 264.165 334.814 264.239 334.727C264.313 334.64 264.405 334.569 264.508 334.519C265.587 333.917 268.33 334.701 268.454 334.739C268.489 334.748 268.521 334.768 268.543 334.796C268.565 334.825 268.577 334.86 268.577 334.897C268.577 334.933 268.565 334.968 268.543 334.997C268.521 335.025 268.489 335.045 268.454 335.054C267.787 335.346 267.097 335.579 266.39 335.752ZM264.976 334.672C264.869 334.697 264.767 334.735 264.67 334.787C264.607 334.817 264.551 334.86 264.505 334.912C264.459 334.965 264.424 335.026 264.403 335.092C264.326 335.331 264.403 335.417 264.45 335.465C264.88 335.838 266.639 335.417 267.89 334.911C266.943 334.644 265.954 334.563 264.976 334.672Z" fill="#263238"/>
<path d="M268.441 335.035H268.374C267.419 334.873 265.431 333.774 265.374 332.952C265.374 332.761 265.441 332.494 265.88 332.341C266.194 332.234 266.537 332.254 266.836 332.398C267.887 332.904 268.508 334.739 268.537 334.816C268.553 334.841 268.562 334.871 268.562 334.902C268.562 334.932 268.553 334.962 268.537 334.988C268.511 335.013 268.477 335.029 268.441 335.035ZM266.091 332.627H265.995C265.699 332.723 265.708 332.847 265.718 332.885C265.718 333.382 267.151 334.28 268.126 334.586C267.865 333.818 267.371 333.149 266.712 332.675C266.516 332.59 266.297 332.574 266.091 332.627Z" fill="#263238"/>
<path d="M278.887 337.309L271.691 338.37L271.921 321.877L279.116 320.826L278.887 337.309Z" fill="#CE7A63"/>
<path d="M270.612 334.108H280.043C280.182 334.104 280.317 334.152 280.423 334.242C280.529 334.332 280.598 334.458 280.617 334.595L281.572 340.95C281.591 341.109 281.576 341.271 281.528 341.424C281.48 341.577 281.4 341.718 281.293 341.838C281.187 341.958 281.056 342.054 280.91 342.12C280.764 342.186 280.605 342.221 280.445 342.221C277.626 342.173 273.574 342.011 270.029 342.011C265.892 342.011 262.174 342.23 257.32 342.23C254.387 342.23 253.842 339.45 255.056 339.001C260.483 336.965 263.388 336.621 268.882 334.662C269.424 334.383 270.009 334.196 270.612 334.108Z" fill="#263238"/>
<path opacity="0.2" d="M271.921 321.887L271.797 330.382L279.002 329.321L279.126 320.826L271.921 321.887Z" fill="black"/>
<path d="M275.199 334.615C275.151 331.566 276.107 326.664 268.51 329.665C263.981 331.442 270.125 336.669 270.125 336.669L275.199 334.615Z" fill="#263238"/>
<path d="M270.287 155.124C270.287 155.124 266.465 213.002 267.545 233.584C268.596 253.087 269.188 308.414 269.322 322.928C269.328 323.37 269.427 323.805 269.613 324.205C269.799 324.605 270.069 324.961 270.403 325.249C270.737 325.538 271.129 325.751 271.552 325.877C271.975 326.002 272.42 326.036 272.858 325.977L277.941 325.289C278.62 325.196 279.249 324.883 279.733 324.398C280.216 323.913 280.527 323.282 280.617 322.604C283.904 296.985 287.812 257.464 288.662 236.308C289.618 212.161 295.561 155.086 295.561 155.086L270.287 155.124Z" fill="#18A44C"/>
<path opacity="0.2" d="M270.287 155.124C270.287 155.124 266.465 213.002 267.545 233.584C268.596 253.087 269.188 308.414 269.322 322.928C269.328 323.37 269.427 323.805 269.613 324.205C269.799 324.605 270.069 324.961 270.403 325.249C270.737 325.538 271.129 325.751 271.552 325.877C271.975 326.002 272.42 326.036 272.858 325.977L277.941 325.289C278.62 325.196 279.249 324.883 279.733 324.398C280.216 323.913 280.527 323.282 280.617 322.604C283.904 296.985 287.812 257.464 288.662 236.308C289.618 212.161 295.561 155.086 295.561 155.086L270.287 155.124Z" fill="white"/>
<path d="M318.256 334.806C317.425 335.178 316.565 335.427 316.125 335.169C316.013 335.1 315.926 334.997 315.876 334.875C315.826 334.753 315.817 334.618 315.848 334.49C315.859 334.375 315.894 334.263 315.952 334.162C316.009 334.062 316.088 333.975 316.183 333.908C317.138 333.124 320.005 333.411 320.101 333.42C320.136 333.423 320.169 333.436 320.197 333.458C320.224 333.481 320.244 333.511 320.253 333.544C320.261 333.578 320.258 333.613 320.246 333.645C320.234 333.677 320.214 333.705 320.187 333.726C319.577 334.143 318.931 334.504 318.256 334.806ZM316.67 333.994C316.572 334.041 316.479 334.099 316.393 334.166C316.334 334.206 316.285 334.258 316.249 334.319C316.212 334.38 316.19 334.448 316.183 334.519C316.183 334.758 316.24 334.844 316.297 334.873C316.785 335.169 318.438 334.433 319.585 333.726C318.605 333.627 317.615 333.718 316.67 333.994Z" fill="#263238"/>
<path d="M320.109 333.745C319.154 333.745 316.994 333.028 316.794 332.226C316.746 332.044 316.794 331.767 317.185 331.538C317.328 331.455 317.487 331.401 317.651 331.382C317.816 331.362 317.982 331.376 318.141 331.423C319.268 331.738 320.214 333.42 320.253 333.497C320.267 333.523 320.274 333.553 320.274 333.583C320.274 333.613 320.267 333.642 320.253 333.669C320.235 333.69 320.213 333.708 320.189 333.721C320.164 333.734 320.137 333.743 320.109 333.745ZM317.367 331.834H317.281C317.013 331.987 317.042 332.102 317.052 332.14C317.176 332.618 318.714 333.258 319.727 333.392C319.336 332.677 318.731 332.102 317.998 331.748C317.8 331.695 317.591 331.712 317.405 331.796L317.367 331.834Z" fill="#263238"/>
<path d="M331.252 334.166L324.467 336.469L319.967 320.521L326.742 318.218L331.252 334.166Z" fill="#CE7A63"/>
<path opacity="0.2" d="M288.119 175.821C286.141 183.743 286.667 216.662 288.712 235.218C289.199 224.354 290.575 207.603 291.97 192.219L288.119 175.821Z" fill="black"/>
<path d="M321.858 332.599L331.146 330.927C331.285 330.899 331.429 330.921 331.553 330.989C331.677 331.058 331.774 331.167 331.825 331.299L334.261 337.319C334.321 337.465 334.347 337.623 334.337 337.781C334.327 337.938 334.282 338.091 334.205 338.229C334.128 338.367 334.021 338.485 333.892 338.576C333.762 338.666 333.614 338.727 333.459 338.753C330.678 339.211 326.646 339.765 323.158 340.396C319.087 341.132 319.059 341.352 314.281 342.231C311.414 342.756 310.182 340.148 311.261 339.488C316.115 336.545 315.322 336.345 320.253 333.459C320.734 333.08 321.277 332.789 321.858 332.599Z" fill="#263238"/>
<path opacity="0.2" d="M319.967 320.53L322.289 328.748L329.073 326.445L326.751 318.227L319.967 320.53Z" fill="black"/>
<path d="M283.924 155.124C283.924 155.124 288.874 213.011 292.686 233.584C296.356 253.383 312.953 309.78 317.846 322.594C318.13 323.342 318.693 323.951 319.415 324.295C320.138 324.639 320.966 324.69 321.725 324.438L326.627 322.842C327.348 322.607 327.958 322.117 328.343 321.465C328.728 320.812 328.862 320.042 328.72 319.297C323.847 294.138 316.088 257.368 314.157 236.308C311.95 212.161 308.711 155.086 308.711 155.086L283.924 155.124Z" fill="#18A44C"/>
<path opacity="0.2" d="M283.924 155.124C283.924 155.124 288.874 213.011 292.686 233.584C296.356 253.383 312.953 309.78 317.846 322.594C318.13 323.342 318.693 323.951 319.415 324.295C320.138 324.639 320.966 324.69 321.725 324.438L326.627 322.842C327.348 322.607 327.958 322.117 328.343 321.465C328.728 320.812 328.862 320.042 328.72 319.297C323.847 294.138 316.088 257.368 314.157 236.308C311.95 212.161 308.711 155.086 308.711 155.086L283.924 155.124Z" fill="white"/>
<path d="M285.871 66.8215C285.929 67.4044 285.671 67.9013 285.289 67.9395C284.906 67.9777 284.562 67.5382 284.505 66.9839C284.448 66.4297 284.706 65.9137 285.088 65.8755C285.47 65.8373 285.814 66.2482 285.871 66.8215Z" fill="#263238"/>
<path d="M279.355 67.4714C279.412 68.0448 279.154 68.5416 278.772 68.5799C278.39 68.6181 278.046 68.1785 277.988 67.6243C277.931 67.0701 278.189 66.5445 278.571 66.5063C278.954 66.4681 279.298 66.8885 279.355 67.4714Z" fill="#263238"/>
<path d="M281.458 67.5479C280.943 69.3802 280.178 71.1326 279.184 72.7556C279.606 72.9976 280.077 73.1443 280.562 73.1856C281.047 73.2268 281.535 73.1616 281.993 72.9945L281.458 67.5479Z" fill="#BA4D3C"/>
<path d="M283.798 74.428C283.754 74.4307 283.71 74.4163 283.677 74.3878C283.643 74.3594 283.621 74.319 283.616 74.2751C283.614 74.2525 283.616 74.2295 283.622 74.2077C283.628 74.1858 283.639 74.1654 283.653 74.1476C283.667 74.1298 283.685 74.115 283.705 74.1041C283.725 74.0932 283.747 74.0863 283.769 74.084C284.488 74.0306 285.184 73.808 285.8 73.4344C286.416 73.0607 286.935 72.5466 287.314 71.934C287.335 71.8936 287.37 71.863 287.413 71.8487C287.456 71.8344 287.503 71.8375 287.544 71.8575C287.582 71.8797 287.612 71.9153 287.626 71.9576C287.64 71.9999 287.638 72.0459 287.62 72.0869C287.217 72.7545 286.659 73.3155 285.994 73.7229C285.329 74.1303 284.576 74.3721 283.798 74.428Z" fill="#263238"/>
<path d="M287.621 64.5287C287.569 64.533 287.516 64.5259 287.466 64.5077C287.417 64.4896 287.372 64.4608 287.335 64.4236C287.057 64.094 286.706 63.8353 286.308 63.6691C285.911 63.5029 285.48 63.4339 285.051 63.468C284.962 63.482 284.872 63.4608 284.799 63.409C284.725 63.3573 284.675 63.279 284.659 63.1909C284.651 63.1469 284.651 63.1017 284.661 63.058C284.671 63.0143 284.689 62.973 284.715 62.9364C284.741 62.8999 284.773 62.8689 284.812 62.8453C284.85 62.8217 284.892 62.806 284.936 62.7991C285.468 62.7432 286.007 62.8155 286.505 63.01C287.004 63.2045 287.449 63.5155 287.803 63.9171C287.836 63.9484 287.863 63.9861 287.881 64.028C287.899 64.0699 287.908 64.1151 287.908 64.1608C287.908 64.2064 287.899 64.2516 287.881 64.2935C287.863 64.3354 287.836 64.3732 287.803 64.4044C287.756 64.4627 287.693 64.5059 287.621 64.5287Z" fill="#263238"/>
<path d="M276.203 65.4458C276.152 65.4558 276.1 65.4558 276.05 65.4458C275.968 65.4082 275.905 65.3402 275.872 65.2563C275.84 65.1723 275.842 65.0792 275.878 64.9967C276.085 64.499 276.408 64.0582 276.821 63.7108C277.233 63.3634 277.722 63.1195 278.248 62.9996C278.295 62.9832 278.345 62.9772 278.395 62.9822C278.444 62.9871 278.493 63.0028 278.536 63.0282C278.579 63.0536 278.616 63.088 278.644 63.1292C278.672 63.1703 278.691 63.2171 278.7 63.2663C278.708 63.3156 278.706 63.3661 278.693 63.4143C278.68 63.4625 278.656 63.5073 278.624 63.5456C278.592 63.5839 278.552 63.6147 278.507 63.6359C278.462 63.6571 278.412 63.6682 278.362 63.6685C277.947 63.7697 277.562 63.968 277.238 64.247C276.914 64.5261 276.661 64.878 276.499 65.2738C276.47 65.3265 276.427 65.3703 276.375 65.4006C276.322 65.4309 276.263 65.4465 276.203 65.4458Z" fill="#263238"/>
<path d="M299.087 89.8218C302.833 89.8218 311.863 90.0224 312.742 93.3669C313.621 96.7113 312.656 102.129 311.461 105.311C313.22 110.165 312.656 117.332 310.984 119.568C312.818 124.976 311.624 128.961 310.506 130.872C311.385 133.022 312.178 139.157 310.831 142.176C311.939 146.476 313.21 153.643 311.222 155.086C308.518 156.997 301.323 157.953 296.239 156.749C291.156 155.545 293.153 145.282 293.545 142.893C291.318 139.95 293.707 131.111 293.707 131.111C292.589 128.646 294.261 119.406 294.261 119.406C292.914 117.179 294.663 105.072 294.663 105.072C293.21 102.645 292.58 89.8218 299.087 89.8218Z" fill="#263238"/>
<path d="M271.579 92.0483C274.522 90.7488 284.383 88.3886 282.472 90.9877C279.701 94.7621 281.402 98.7372 279.758 103.41C281.211 107.872 280.714 115.163 279.366 117.743C280.563 121.486 280.441 125.526 279.022 129.191C279.739 131.102 280.398 137.093 279.28 140.418C280.236 144.47 280.962 152.64 279.28 154.484C278.07 155.817 276.465 156.73 274.701 157.089C272.936 157.448 271.102 157.235 269.467 156.481C267.126 155.526 266.084 147.709 267.24 145.015C264.966 140.055 266.82 132.707 266.82 132.707C264.622 128.885 266.323 120.868 266.323 120.868C264.144 113.758 266.82 105.894 266.82 105.894C265.645 103.763 266.887 94.1219 271.579 92.0483Z" fill="#263238"/>
<path d="M278.065 92.9274C277.673 92.6371 277.355 92.2598 277.134 91.8253C276.914 91.3909 276.797 90.9111 276.794 90.4238C276.786 90.0972 276.843 89.7723 276.962 89.4679C277.08 89.1635 277.258 88.8856 277.484 88.6502C277.711 88.4148 277.982 88.2265 278.282 88.0963C278.581 87.9661 278.904 87.8966 279.23 87.8916C280.349 87.9845 281.436 88.31 282.422 88.8472C283.922 89.5829 284.476 90.2614 284.543 91.3698C284.61 92.4782 281.877 96.3769 280.377 95.45C278.877 94.5231 278.905 93.8829 278.065 92.9274Z" fill="#263238"/>
<path opacity="0.2" d="M307.056 106.592C307.801 103.372 309.693 103.658 311.576 104.977L311.442 105.35C313.2 110.204 312.636 117.371 310.964 119.607C311.069 119.912 311.165 120.218 311.251 120.562C308.91 118.269 305.661 112.669 307.056 106.592Z" fill="black"/>
<path d="M307.382 114.456L301.028 117.361L300.406 137.886L283.14 149.009L302.47 155.946L307.716 175.793L314.08 172.898L317.635 140.523L307.382 114.456Z" fill="#C07300"/>
<path opacity="0.3" d="M307.382 114.456L301.028 117.361L300.406 137.886L283.14 149.009L302.47 155.946L307.716 175.793L314.08 172.898L317.635 140.523L307.382 114.456Z" fill="#FFAD33"/>
<path d="M347.152 157.8L340.788 160.705L320.282 159.558L328.863 153.768L347.152 157.8Z" fill="#C07300"/>
<path opacity="0.3" d="M347.152 157.8L340.788 160.705L320.282 159.558L328.863 153.768L347.152 157.8Z" fill="black"/>
<path d="M307.379 114.456L323.299 127.432L343.012 121.68L335.587 140.829L347.149 157.8L326.643 156.653L314.078 172.898L308.822 153.041L289.501 146.104L306.758 134.981L307.379 114.456Z" fill="#FFAD33"/>
<path d="M317.386 155.258L317.243 161.746L324.888 161.316C324.888 161.316 325.92 157.255 321.524 154.427L317.386 155.258Z" fill="#CE7A63"/>
<path d="M319.699 168.244L324.993 165.195L324.897 161.316L317.243 161.746L319.699 168.244Z" fill="#CE7A63"/>
<path d="M313 93.1754C313.621 93.7488 314.089 94.1883 314.605 94.6948C315.121 95.2012 315.561 95.6503 316.096 96.1854C317.051 97.1888 318.007 98.2208 318.962 99.2623C320.831 101.4 322.588 103.633 324.227 105.951C325.959 108.374 327.496 110.93 328.824 113.596C330.421 116.682 331.444 120.033 331.843 123.486C331.902 123.996 331.931 124.51 331.929 125.024V125.827V126.381L331.767 128.55C331.595 129.974 331.423 131.417 331.184 132.764C330.741 135.489 330.161 138.191 329.445 140.857C328.07 146.1 326.248 151.215 323.998 156.146C323.631 156.977 322.98 157.649 322.162 158.043C321.344 158.438 320.413 158.528 319.534 158.298C318.656 158.068 317.888 157.533 317.368 156.789C316.849 156.044 316.611 155.139 316.698 154.235V154.082C317.109 149.037 317.653 143.896 317.93 138.908C318.121 136.405 318.198 133.93 318.255 131.512C318.255 130.299 318.255 129.114 318.255 127.929L318.179 126.209V125.788V125.607C318.159 125.471 318.13 125.337 318.093 125.206C317.596 123.524 316.876 121.917 315.952 120.428C314.788 118.522 313.512 116.688 312.13 114.933C310.687 113.099 309.139 111.274 307.534 109.477C306.731 108.579 305.9 107.7 305.078 106.811L303.836 105.502L302.661 104.288L302.469 104.088C301.107 102.654 300.353 100.748 300.366 98.7701C300.38 96.7922 301.159 94.8964 302.541 93.4812C303.923 92.0659 305.799 91.2414 307.777 91.1808C309.754 91.1203 311.677 91.8284 313.143 93.1563L313 93.1754Z" fill="#263238"/>
<path d="M301.956 92.0865C302.911 91.9527 303.16 89.7168 302.395 88.2643C301.774 87.0699 299.529 87.2323 297.522 87.7483C295.907 88.1082 294.361 88.7278 292.945 89.583C290.919 90.701 291.655 92.0483 292.123 93.109C292.591 94.1696 293.48 96.6063 295.391 95.3163C297.302 94.0263 300.618 92.2872 301.956 92.0865Z" fill="#263238"/>
<path d="M326.053 332.178C325.91 329.13 326.713 324.209 319.211 327.4C314.73 329.312 321.027 334.357 321.027 334.357L326.053 332.178Z" fill="#263238"/>
<path d="M232.104 94.5997H242.366C242.651 94.61 242.927 94.7069 243.156 94.8776C243.384 95.0484 243.556 95.2847 243.647 95.5552L249.017 114.666C249.052 114.778 249.06 114.896 249.04 115.011C249.02 115.126 248.973 115.234 248.903 115.328C248.833 115.421 248.742 115.496 248.637 115.547C248.532 115.599 248.417 115.624 248.3 115.622H238.028C237.745 115.607 237.473 115.508 237.247 115.338C237.02 115.168 236.85 114.934 236.757 114.666L231.387 95.5552C231.35 95.4438 231.34 95.325 231.359 95.2091C231.378 95.0932 231.424 94.9836 231.495 94.8896C231.565 94.7957 231.658 94.7202 231.764 94.6697C231.87 94.6192 231.986 94.5952 232.104 94.5997Z" fill="#18A44C"/>
<path d="M237.695 107.48L235.545 99.9985L231.799 101.489L233.156 110.338L237.695 107.48Z" fill="#CE7A63"/>
<path opacity="0.3" d="M243.188 95.2876C243.288 95.2937 243.385 95.331 243.464 95.3943C243.542 95.4577 243.6 95.5439 243.627 95.6411L249.007 114.666C249.023 114.705 249.03 114.748 249.025 114.791C249.02 114.833 249.004 114.873 248.979 114.908C248.954 114.942 248.921 114.97 248.882 114.988C248.844 115.006 248.801 115.013 248.758 115.01C248.658 115.006 248.562 114.971 248.483 114.909C248.404 114.847 248.347 114.762 248.319 114.666L242.958 95.6125C242.948 95.5758 242.947 95.5374 242.953 95.5C242.96 95.4626 242.975 95.4271 242.996 95.3961C243.018 95.365 243.047 95.3392 243.08 95.3205C243.113 95.3017 243.15 95.2905 243.188 95.2876Z" fill="black"/>
<path d="M117.124 20.353H109.89V21.3086H117.124V20.353Z" fill="#18A44C"/>
<path d="M83.1333 31.189H82.1777C82.1802 28.3241 83.3161 25.5766 85.3374 23.5464C87.3586 21.5162 90.1011 20.3682 92.9659 20.353H105.961V21.3086H92.9659C90.3545 21.3237 87.8551 22.3711 86.0131 24.2221C84.171 26.0731 83.1358 28.5775 83.1333 31.189Z" fill="#18A44C"/>
<path d="M205.788 23.6973H92.9659C88.8337 23.6973 85.4839 27.047 85.4839 31.1792V49.7551C85.4839 53.8873 88.8337 57.2371 92.9659 57.2371H205.788C209.92 57.2371 213.27 53.8873 213.27 49.7551V31.1792C213.27 27.047 209.92 23.6973 205.788 23.6973Z" fill="#18A44C"/>
<path d="M134.111 35.4126L135.755 38.7379L139.434 39.273L136.768 41.8626L137.399 45.5319L134.111 43.8023L130.824 45.5319L131.455 41.8626L128.789 39.273L132.468 38.7379L134.111 35.4126Z" fill="white"/>
<path d="M149.04 35.4126L150.684 38.7379L154.363 39.273L151.697 41.8626L152.327 45.5319L149.04 43.8023L145.753 45.5319L146.384 41.8626L143.718 39.273L147.397 38.7379L149.04 35.4126Z" fill="white"/>
<path d="M163.962 35.4126L165.606 38.7379L169.284 39.273L166.628 41.8626L167.249 45.5319L163.962 43.8023L160.675 45.5319L161.306 41.8626L158.64 39.273L162.319 38.7379L163.962 35.4126Z" fill="white"/>
<path d="M178.889 35.4126L180.532 38.7379L184.211 39.273L181.555 41.8626L182.176 45.5319L178.889 43.8023L175.602 45.5319L176.232 41.8626L173.566 39.273L177.245 38.7379L178.889 35.4126Z" fill="white"/>
<path opacity="0.3" d="M193.815 37.5724L194.599 39.1681C194.669 39.3066 194.772 39.426 194.898 39.5159C195.025 39.6058 195.171 39.6636 195.325 39.6841L197.083 39.9421L195.812 41.1843C195.702 41.2917 195.619 41.4243 195.571 41.5707C195.522 41.7172 195.51 41.8731 195.535 42.0252L195.832 43.7834L194.264 42.9999C194.124 42.9326 193.971 42.8967 193.815 42.8948C193.663 42.8942 193.512 42.9302 193.376 42.9999L191.799 43.8312L192.067 42.0443C192.092 41.8922 192.08 41.7363 192.031 41.5899C191.983 41.4434 191.9 41.3109 191.79 41.2034L190.519 39.9612L192.277 39.7032C192.435 39.6847 192.586 39.6269 192.716 39.5351C192.847 39.4433 192.952 39.3205 193.022 39.1777L193.806 37.5819M193.806 35.4224L192.162 38.7477L188.483 39.2828L191.149 41.8819L190.519 45.5416L193.806 43.8121L197.093 45.5416L196.462 41.8819L199.128 39.2828L195.449 38.7477L193.806 35.4224Z" fill="white"/>
<path opacity="0.2" d="M108.79 51.9435C115.128 51.9435 120.266 46.8055 120.266 40.4674C120.266 34.1293 115.128 28.9912 108.79 28.9912C102.452 28.9912 97.3135 34.1293 97.3135 40.4674C97.3135 46.8055 102.452 51.9435 108.79 51.9435Z" fill="white"/>
<path d="M118.269 40.4672C118.272 42.5758 117.57 44.6249 116.276 46.2897C114.982 47.9546 113.17 49.1398 111.126 49.6577C109.082 50.1756 106.923 49.9964 104.992 49.1486C103.062 48.3008 101.469 46.8328 100.468 44.9774C99.7103 43.595 99.3158 42.0433 99.3208 40.4672C99.399 38.0065 100.431 35.6728 102.2 33.9599C103.968 32.2469 106.333 31.2891 108.795 31.2891C111.257 31.2891 113.622 32.2469 115.391 33.9599C117.159 35.6728 118.191 38.0065 118.269 40.4672Z" fill="white"/>
<path d="M117.122 44.9777C116.311 46.4809 115.11 47.7368 113.643 48.6121C112.177 49.4875 110.502 49.9497 108.794 49.9497C107.086 49.9497 105.411 49.4875 103.944 48.6121C102.478 47.7368 101.276 46.4809 100.466 44.9777C102.932 43.3322 105.83 42.4541 108.794 42.4541C111.758 42.4541 114.656 43.3322 117.122 44.9777Z" fill="#263238"/>
<path d="M113.013 37.2665C113.013 38.1018 112.765 38.9184 112.301 39.613C111.837 40.3075 111.177 40.8489 110.406 41.1685C109.634 41.4882 108.785 41.5718 107.965 41.4089C107.146 41.2459 106.394 40.8437 105.803 40.253C105.212 39.6623 104.81 38.9098 104.647 38.0905C104.484 37.2712 104.568 36.422 104.887 35.6502C105.207 34.8785 105.748 34.2188 106.443 33.7548C107.138 33.2907 107.954 33.043 108.789 33.043C109.91 33.043 110.984 33.4879 111.776 34.28C112.568 35.0721 113.013 36.1463 113.013 37.2665Z" fill="#FFC3BD"/>
<path d="M198.01 140.255H178.89V141.211H198.01V140.255Z" fill="#18A44C"/>
<path d="M205.788 104.327H92.9659C88.8337 104.327 85.4839 107.676 85.4839 111.809V130.385C85.4839 134.517 88.8337 137.866 92.9659 137.866H205.788C209.92 137.866 213.27 134.517 213.27 130.385V111.809C213.27 107.676 209.92 104.327 205.788 104.327Z" fill="#18A44C"/>
<path d="M134.111 116.032L135.755 119.367L139.434 119.893L136.768 122.492L137.399 126.152L134.111 124.422L130.824 126.152L131.455 122.492L128.789 119.893L132.468 119.367L134.111 116.032Z" fill="white"/>
<path d="M149.04 116.032L150.684 119.367L154.363 119.893L151.697 122.492L152.327 126.152L149.04 124.422L145.753 126.152L146.384 122.492L143.718 119.893L147.397 119.367L149.04 116.032Z" fill="white"/>
<path d="M163.962 116.032L165.606 119.367L169.284 119.893L166.628 122.492L167.249 126.152L163.962 124.422L160.675 126.152L161.306 122.492L158.64 119.893L162.319 119.367L163.962 116.032Z" fill="white"/>
<path d="M178.889 116.032L180.532 119.367L184.211 119.893L181.555 122.492L182.176 126.152L178.889 124.422L175.602 126.152L176.232 122.492L173.566 119.893L177.245 119.367L178.889 116.032Z" fill="white"/>
<path d="M193.814 116.032L195.457 119.367L199.136 119.893L196.48 122.492L197.101 126.152L193.814 124.422L190.527 126.152L191.157 122.492L188.491 119.893L192.17 119.367L193.814 116.032Z" fill="white"/>
<path opacity="0.2" d="M116.911 129.21C121.393 124.728 121.393 117.462 116.911 112.98C112.429 108.499 105.163 108.499 100.681 112.98C96.1996 117.462 96.1996 124.728 100.681 129.21C105.163 133.692 112.429 133.692 116.911 129.21Z" fill="white"/>
<path d="M118.269 121.087C118.274 123.197 117.574 125.247 116.281 126.914C114.988 128.58 113.175 129.767 111.13 130.286C109.086 130.805 106.926 130.627 104.995 129.779C103.063 128.932 101.47 127.463 100.468 125.607C99.7103 124.221 99.3159 122.666 99.3208 121.087C99.399 118.627 100.431 116.293 102.2 114.58C103.968 112.867 106.333 111.909 108.795 111.909C111.257 111.909 113.622 112.867 115.391 114.58C117.159 116.293 118.191 118.627 118.269 121.087Z" fill="white"/>
<path opacity="0.5" d="M117.122 125.607C116.309 127.108 115.107 128.361 113.641 129.234C112.175 130.107 110.5 130.569 108.794 130.569C107.088 130.569 105.413 130.107 103.947 129.234C102.481 128.361 101.279 127.108 100.466 125.607C102.932 123.962 105.83 123.083 108.794 123.083C111.758 123.083 114.656 123.962 117.122 125.607Z" fill="#18A44C"/>
<path d="M113.013 117.848C113.015 118.684 112.769 119.501 112.306 120.197C111.843 120.893 111.184 121.435 110.412 121.757C109.641 122.078 108.791 122.163 107.971 122.001C107.151 121.839 106.398 121.437 105.806 120.847C105.215 120.257 104.812 119.504 104.648 118.685C104.484 117.865 104.567 117.016 104.886 116.243C105.206 115.471 105.747 114.811 106.442 114.346C107.137 113.882 107.954 113.634 108.789 113.634C109.908 113.634 110.981 114.077 111.773 114.867C112.564 115.657 113.01 116.729 113.013 117.848Z" fill="#FFB573"/>
<path d="M205.788 64.0122H92.9659C88.8337 64.0122 85.4839 67.362 85.4839 71.4942V90.0701C85.4839 94.2022 88.8337 97.552 92.9659 97.552H205.788C209.92 97.552 213.27 94.2022 213.27 90.0701V71.4942C213.27 67.362 209.92 64.0122 205.788 64.0122Z" fill="#18A44C"/>
<path d="M209.8 83.6489L201.773 97.5522H221.84L209.8 83.6489Z" fill="#18A44C"/>
<path d="M134.111 75.7178L135.755 79.0526L139.434 79.5877L136.768 82.1773L137.399 85.8371L134.111 84.1075L130.824 85.8371L131.455 82.1773L128.789 79.5877L132.468 79.0526L134.111 75.7178Z" fill="white"/>
<path d="M149.04 75.7178L150.684 79.0526L154.363 79.5877L151.697 82.1773L152.327 85.8371L149.04 84.1075L145.753 85.8371L146.384 82.1773L143.718 79.5877L147.397 79.0526L149.04 75.7178Z" fill="white"/>
<path opacity="0.3" d="M163.963 77.877L164.746 79.4728C164.815 79.6131 164.917 79.7344 165.044 79.826C165.171 79.9177 165.318 79.9768 165.473 79.9984L167.221 80.2659L165.95 81.5081C165.84 81.6155 165.757 81.7481 165.709 81.8945C165.66 82.041 165.648 82.1969 165.673 82.349L165.969 84.1072L164.402 83.2759C164.264 83.2014 164.11 83.162 163.953 83.1612C163.799 83.1607 163.648 83.2002 163.514 83.2759L161.937 84.1072L162.233 82.349C162.258 82.1969 162.246 82.041 162.198 81.8945C162.15 81.7481 162.067 81.6155 161.956 81.5081L160.685 80.2659L162.444 80.0079C162.598 79.9864 162.745 79.9272 162.872 79.8356C162.999 79.744 163.101 79.6227 163.17 79.4824L163.953 77.8866M163.953 75.7271L162.31 79.0619L158.631 79.597L161.297 82.1866L160.666 85.8463L163.953 84.1168L167.24 85.8463L166.61 82.1866L169.276 79.597L165.597 79.0619L163.953 75.7271Z" fill="white"/>
<path opacity="0.3" d="M178.889 77.8773L179.672 79.4731C179.741 79.6134 179.843 79.7347 179.97 79.8263C180.097 79.9179 180.244 79.9771 180.399 79.9986L182.157 80.2566L180.886 81.4988C180.775 81.6063 180.692 81.7388 180.644 81.8853C180.596 82.0317 180.584 82.1876 180.609 82.3397L180.905 84.0979L179.338 83.2666C179.2 83.1921 179.046 83.1527 178.889 83.152C178.735 83.1515 178.583 83.191 178.449 83.2666L176.873 84.0979L177.169 82.3397C177.194 82.1876 177.182 82.0317 177.134 81.8853C177.085 81.7388 177.002 81.6063 176.892 81.4988L175.621 80.2566L177.379 79.9986C177.534 79.9771 177.681 79.9179 177.808 79.8263C177.934 79.7347 178.036 79.6134 178.105 79.4731L178.889 77.8773ZM178.889 75.7178L177.245 79.0526L173.566 79.5877L176.232 82.1773L175.602 85.8371L178.889 84.1075L182.176 85.8371L181.555 82.1773L184.221 79.5877L180.542 79.0526L178.898 75.7178H178.889Z" fill="white"/>
<path opacity="0.3" d="M193.814 77.8773L194.597 79.4731C194.666 79.6134 194.768 79.7347 194.895 79.8263C195.021 79.9179 195.169 79.9771 195.323 79.9986L197.082 80.2566L195.811 81.4988C195.7 81.6063 195.617 81.7388 195.569 81.8853C195.521 82.0317 195.509 82.1876 195.534 82.3397L195.83 84.0979L194.263 83.2666C194.125 83.1921 193.97 83.1527 193.814 83.152C193.66 83.1515 193.508 83.191 193.374 83.2666L191.797 84.0979L192.094 82.3397C192.119 82.1876 192.107 82.0317 192.058 81.8853C192.01 81.7388 191.927 81.6063 191.817 81.4988L190.546 80.2566L192.304 79.9986C192.459 79.9771 192.606 79.9179 192.732 79.8263C192.859 79.7347 192.961 79.6134 193.03 79.4731L193.814 77.8773ZM193.814 75.7178L192.17 79.0526L188.491 79.5877L191.157 82.1773L190.527 85.8371L193.814 84.1075L197.101 85.8371L196.47 82.1773L199.136 79.5877L195.457 79.0526L193.814 75.7178Z" fill="white"/>
<path opacity="0.2" d="M108.79 92.258C115.128 92.258 120.266 87.1199 120.266 80.7818C120.266 74.4437 115.128 69.3057 108.79 69.3057C102.452 69.3057 97.3135 74.4437 97.3135 80.7818C97.3135 87.1199 102.452 92.258 108.79 92.258Z" fill="white"/>
<path d="M118.268 80.7819C118.27 82.8905 117.569 84.9397 116.275 86.6045C114.981 88.2693 113.168 89.4546 111.124 89.9724C109.08 90.4903 106.922 90.3111 104.991 89.4633C103.06 88.6155 101.468 87.1475 100.466 85.2921C99.7087 83.9098 99.3142 82.3581 99.3192 80.7819C99.2789 79.5124 99.4941 78.2478 99.9521 77.0631C100.41 75.8784 101.101 74.7978 101.985 73.8855C102.869 72.9733 103.927 72.2479 105.097 71.7526C106.266 71.2572 107.523 71.002 108.794 71.002C110.064 71.002 111.321 71.2572 112.49 71.7526C113.66 72.2479 114.718 72.9733 115.602 73.8855C116.486 74.7978 117.177 75.8784 117.635 77.0631C118.093 78.2478 118.308 79.5124 118.268 80.7819Z" fill="white"/>
<path d="M117.122 85.2921C116.309 86.7927 115.107 88.0459 113.641 88.9192C112.175 89.7926 110.5 90.2536 108.794 90.2536C107.088 90.2536 105.413 89.7926 103.947 88.9192C102.481 88.0459 101.279 86.7927 100.466 85.2921C102.932 83.6467 105.83 82.7686 108.794 82.7686C111.758 82.7686 114.656 83.6467 117.122 85.2921Z" fill="#18A44C"/>
<path d="M113.013 77.5429C113.013 78.3782 112.765 79.1948 112.301 79.8894C111.837 80.5839 111.177 81.1253 110.406 81.4449C109.634 81.7646 108.785 81.8482 107.965 81.6853C107.146 81.5223 106.394 81.12 105.803 80.5294C105.212 79.9387 104.81 79.1861 104.647 78.3669C104.484 77.5476 104.568 76.6984 104.887 75.9266C105.207 75.1549 105.748 74.4952 106.443 74.0311C107.138 73.5671 107.954 73.3193 108.789 73.3193C109.344 73.3181 109.894 73.4265 110.407 73.6383C110.92 73.8501 111.386 74.1611 111.779 74.5536C112.171 74.946 112.482 75.4121 112.694 75.9251C112.906 76.4381 113.014 76.9879 113.013 77.5429Z" fill="#B55B52"/>
</svg>
