<svg width="103" height="54" viewBox="0 0 103 54" fill="none" xmlns="http://www.w3.org/2000/svg">
<g clip-path="url(#clip0_430_10515)">
<path d="M69.2194 14.943V38.6078H63.2842V35.6176C62.5265 36.6428 61.5303 37.4545 60.2955 38.0525C59.0889 38.6221 57.77 38.9068 56.3388 38.9068C54.5148 38.9068 52.9012 38.5224 51.4981 37.7535C50.0949 36.9561 48.9865 35.8027 48.1727 34.2934C47.387 32.7556 46.9941 30.9331 46.9941 28.8257V14.943H52.8872V27.9714C52.8872 29.8509 53.3502 31.3033 54.2762 32.3285C55.2022 33.3252 56.4651 33.8236 58.0646 33.8236C59.6922 33.8236 60.9691 33.3252 61.8951 32.3285C62.8212 31.3033 63.2842 29.8509 63.2842 27.9714V14.943H69.2194ZM78.0221 12.1236C76.9837 12.1236 76.1138 11.7961 75.4122 11.1412C74.7388 10.4577 74.4021 9.61765 74.4021 8.62091C74.4021 7.62419 74.7388 6.79834 75.4122 6.14336C76.1138 5.4599 76.9837 5.11816 78.0221 5.11816C79.0604 5.11816 79.9162 5.4599 80.5897 6.14336C81.2913 6.79834 81.6421 7.62419 81.6421 8.62091C81.6421 9.61765 81.2913 10.4577 80.5897 11.1412C79.9162 11.7961 79.0604 12.1236 78.0221 12.1236ZM80.9265 14.943V38.6078H75.0334V14.943H80.9265ZM92.1373 33.6954H102.534V38.6078H85.4445V33.7808L95.6312 19.8553H85.4865V14.943H102.408V19.7698L92.1373 33.6954Z" fill="#17A14B"/>
<path d="M52.75 52.6671V45.3383H53.5709V46.4644H53.6469C53.7924 46.0859 54.0344 45.7885 54.3728 45.5722C54.7145 45.3527 55.1242 45.243 55.6018 45.243C56.1049 45.243 56.5176 45.3622 56.8403 45.6007C57.1661 45.8361 57.4097 46.1607 57.5711 46.5741H57.6327C57.7973 46.167 58.0645 45.8441 58.4346 45.6056C58.808 45.3639 59.2603 45.243 59.7918 45.243C60.4687 45.243 61.0034 45.4577 61.3956 45.8871C61.7879 46.3133 61.984 46.9368 61.984 47.7574V52.6671H61.1394V47.7574C61.1394 47.1786 60.9922 46.7444 60.6981 46.4549C60.4039 46.1655 60.0164 46.0207 59.5355 46.0207C58.9788 46.0207 58.5501 46.1925 58.2496 46.536C57.9491 46.8795 57.7988 47.3153 57.7988 47.8433V52.6671H56.9352V47.6811C56.9352 47.1849 56.7976 46.7841 56.5224 46.4787C56.2471 46.1733 55.8597 46.0207 55.3598 46.0207C55.0245 46.0207 54.7224 46.1034 54.4536 46.2688C54.1878 46.4343 53.9774 46.6648 53.8224 46.9606C53.6706 47.2533 53.5947 47.5905 53.5947 47.9722V52.6671H52.75ZM66.2559 52.8342C65.8163 52.8342 65.4143 52.7482 65.0506 52.5765C64.6867 52.4015 64.3973 52.1503 64.1822 51.8226C63.9671 51.4919 63.8594 51.0911 63.8594 50.6203C63.8594 50.2577 63.9275 49.9523 64.0635 49.7042C64.1996 49.4561 64.3926 49.2524 64.6424 49.0934C64.8924 48.9344 65.1881 48.8087 65.5298 48.7165C65.8717 48.6243 66.2478 48.5527 66.6594 48.5017C67.067 48.4509 67.4117 48.4064 67.6936 48.3682C67.9783 48.33 68.1947 48.2696 68.3437 48.1869C68.492 48.1042 68.5669 47.9706 68.5669 47.7861V47.6143C68.5669 47.1149 68.4179 46.7221 68.1206 46.4357C67.8266 46.1463 67.4023 46.0016 66.8491 46.0016C66.324 46.0016 65.8951 46.1177 65.563 46.3499C65.234 46.5821 65.0031 46.8557 64.8702 47.1706L64.0683 46.8795C64.2328 46.4787 64.4606 46.159 64.7516 45.9205C65.0426 45.6787 65.3685 45.5054 65.7294 45.4004C66.0895 45.2923 66.4549 45.2382 66.8251 45.2382C67.1037 45.2382 67.393 45.2747 67.6936 45.348C67.9969 45.4211 68.2789 45.5483 68.5381 45.7296C68.7973 45.9077 69.0078 46.1574 69.1695 46.4787C69.3306 46.7968 69.4114 47.2008 69.4114 47.6906V52.6671H68.5669V51.5077H68.5148C68.4132 51.7241 68.2628 51.9339 68.0638 52.1375C67.8647 52.3411 67.6148 52.5082 67.3142 52.6386C67.0135 52.7689 66.6608 52.8342 66.2559 52.8342ZM66.3694 52.0564C66.8191 52.0564 67.2079 51.9563 67.5373 51.7559C67.866 51.5555 68.1192 51.2899 68.2963 50.959C68.4766 50.625 68.5669 50.2576 68.5669 49.8569V48.7976C68.5034 48.858 68.3972 48.9121 68.2488 48.9598C68.1032 49.0076 67.9342 49.0505 67.741 49.0887C67.5513 49.1237 67.3616 49.1539 67.1718 49.1793C66.9821 49.2047 66.8111 49.2271 66.6594 49.2461C66.2478 49.297 65.8964 49.3765 65.6057 49.4847C65.3147 49.5929 65.0917 49.7424 64.9367 49.9332C64.7817 50.1209 64.7041 50.3626 64.7041 50.6584C64.7041 51.1037 64.8623 51.4489 65.1787 51.6938C65.495 51.9356 65.8918 52.0564 66.3694 52.0564ZM76.5548 46.9464L75.7818 47.1658C75.7057 46.9464 75.598 46.7475 75.4591 46.5694C75.3194 46.3912 75.1378 46.2497 74.9132 46.1448C74.6921 46.0397 74.4169 45.9873 74.0875 45.9873C73.5945 45.9873 73.1889 46.105 72.8729 46.3404C72.5568 46.5758 72.3985 46.8795 72.3985 47.2517C72.3985 47.5666 72.506 47.8226 72.7212 48.0199C72.9389 48.2139 73.2744 48.3682 73.7267 48.4827L74.8278 48.7546C75.4384 48.9042 75.8954 49.1411 76.1994 49.4656C76.5061 49.79 76.6597 50.1972 76.6597 50.6871C76.6597 51.1006 76.5454 51.468 76.3176 51.7892C76.0898 52.1105 75.7725 52.3634 75.3643 52.5479C74.9594 52.7292 74.4897 52.8199 73.9545 52.8199C73.243 52.8199 72.6564 52.6593 72.194 52.3379C71.7324 52.0135 71.4364 51.546 71.3068 50.9352L72.1185 50.7348C72.2228 51.1706 72.4266 51.4997 72.7305 51.7225C73.0372 51.9451 73.4408 52.0564 73.9405 52.0564C74.5004 52.0564 74.948 51.9308 75.2834 51.6795C75.6188 51.4251 75.7865 51.107 75.7865 50.7253C75.7865 50.4294 75.6883 50.1813 75.4919 49.9809C75.2961 49.7773 74.9988 49.6279 74.6 49.5324L73.4093 49.2461C72.7767 49.0934 72.3083 48.8516 72.0043 48.5209C71.701 48.1901 71.5487 47.7797 71.5487 47.2898C71.5487 46.8859 71.6582 46.5312 71.8767 46.2259C72.0945 45.9173 72.3951 45.6755 72.778 45.5006C73.1608 45.3257 73.5971 45.2382 74.0875 45.2382C74.7549 45.2382 75.288 45.3909 75.6869 45.6962C76.0884 45.9984 76.3777 46.4151 76.5548 46.9464ZM81.38 45.3383V46.078H77.9017V45.3383H81.38ZM78.9881 43.5825H79.8372V50.7539C79.8372 51.0592 79.8894 51.2994 79.9943 51.4743C80.0985 51.6461 80.2348 51.7686 80.4025 51.8418C80.5695 51.9117 80.7485 51.9468 80.9383 51.9468C81.0492 51.9468 81.1441 51.9403 81.2229 51.9276C81.3025 51.9117 81.3719 51.8958 81.4321 51.8799L81.6124 52.6481C81.5303 52.6799 81.4287 52.7086 81.3084 52.734C81.1881 52.7626 81.0399 52.777 80.8621 52.777C80.5521 52.777 80.2535 52.7086 79.9655 52.5718C79.6809 52.435 79.4471 52.2314 79.2634 51.961C79.0796 51.6907 78.9881 51.355 78.9881 50.9542V43.5825ZM86.1663 52.8199C85.4862 52.8199 84.8976 52.6608 84.4011 52.3427C83.9047 52.0214 83.5199 51.5777 83.248 51.0115C82.9794 50.4422 82.8445 49.7868 82.8445 49.0458C82.8445 48.3078 82.9794 47.6525 83.248 47.0799C83.5199 46.5042 83.8947 46.0541 84.3724 45.7296C84.8535 45.402 85.4087 45.2382 86.038 45.2382C86.4336 45.2382 86.815 45.3113 87.1819 45.4577C87.5486 45.6007 87.878 45.8219 88.1686 46.1209C88.4632 46.4167 88.6958 46.7905 88.8661 47.2422C89.0372 47.6906 89.1227 48.2218 89.1227 48.8358V49.2557H83.4283V48.5066H88.2588C88.2588 48.0358 88.1639 47.6127 87.9742 47.2374C87.7878 46.8589 87.5266 46.5598 87.1912 46.3404C86.8591 46.1209 86.4749 46.0111 86.038 46.0111C85.5763 46.0111 85.1701 46.1352 84.8187 46.3833C84.4673 46.6314 84.192 46.9591 83.9929 47.3662C83.7972 47.7734 83.6969 48.2186 83.6943 48.7022V49.1506C83.6943 49.7328 83.7938 50.2417 83.9929 50.6776C84.1954 51.1101 84.482 51.4457 84.8521 51.6843C85.2222 51.9229 85.6599 52.0421 86.1663 52.0421C86.5111 52.0421 86.813 51.988 87.0729 51.8799C87.3354 51.7718 87.5553 51.6271 87.7324 51.4457C87.9127 51.2612 88.0483 51.0592 88.1406 50.8398L88.9423 51.1022C88.8314 51.4107 88.6497 51.6954 88.3964 51.9563C88.1465 52.2171 87.8333 52.427 87.4571 52.5861C87.0836 52.7419 86.6533 52.8199 86.1663 52.8199ZM90.984 52.6671V45.3383H91.8044V46.4644H91.8666C92.0116 46.0954 92.2645 45.7981 92.6252 45.5722C92.9894 45.3432 93.4004 45.2287 93.8598 45.2287C93.9294 45.2287 94.0063 45.2303 94.0923 45.2335C94.1765 45.2366 94.2488 45.2398 94.3056 45.243V46.1066C94.2671 46.1002 94.2012 46.0907 94.106 46.078C94.0109 46.0652 93.9083 46.0589 93.7976 46.0589C93.4178 46.0589 93.0791 46.14 92.7817 46.3022C92.4879 46.4613 92.2554 46.6823 92.0844 46.9654C91.9141 47.2486 91.8285 47.5714 91.8285 47.934V52.6671H90.984Z" fill="#17A14B"/>
<path d="M42.2477 53.5948C44.9173 53.5948 47.0814 51.407 47.0814 48.7081C47.0814 46.0092 44.9173 43.8213 42.2477 43.8213C39.5782 43.8213 37.4141 46.0092 37.4141 48.7081C37.4141 51.407 39.5782 53.5948 42.2477 53.5948Z" fill="#17A14B"/>
<path d="M2.89931 12.3657C1.02036 16.4724 0.52582 21.0887 1.49155 25.5069C2.45727 29.9251 4.82996 33.9008 8.24559 36.8246C11.6613 39.7483 15.9313 41.4585 20.4008 41.6928C24.8703 41.9272 29.2925 40.6727 32.989 38.1219L28.3774 31.2914C26.1594 32.8219 23.5062 33.5746 20.8245 33.434C18.1428 33.2934 15.5808 32.2673 13.5313 30.513C11.482 28.7588 10.0584 26.3733 9.47893 23.7225C8.89948 21.0715 9.19619 18.3017 10.3235 15.8377L2.89931 12.3657Z" fill="#17A14B" fill-opacity="0.4"/>
<path d="M31.4076 39.1097C35.0535 37.0575 37.9913 33.9269 39.8264 30.1379C41.6616 26.3491 42.3064 22.0833 41.6742 17.9132C41.0419 13.7431 39.163 9.8684 36.2896 6.80909C33.4162 3.74988 29.6858 1.65249 25.5993 0.798569C21.5128 -0.0553507 17.2656 0.375049 13.4281 2.03198C9.59046 3.68891 6.34609 6.49311 4.13048 10.0681C1.91483 13.6431 0.834001 17.8178 1.03305 22.0318C1.2321 26.2457 2.70149 30.2972 5.24401 33.6425L11.7304 28.6038C10.2048 26.5966 9.32327 24.1657 9.20384 21.6372C9.08441 19.1089 9.73287 16.604 11.0623 14.4591C12.3916 12.3141 14.3383 10.6315 16.6408 9.63739C18.9433 8.64323 21.4916 8.38498 23.9436 8.89734C26.3955 9.40968 28.6337 10.6682 30.3578 12.5037C32.0818 14.3393 33.2091 16.6642 33.5885 19.1662C33.9678 21.6682 33.581 24.2277 32.4798 26.501C31.3788 28.7744 29.6161 30.6527 27.4285 31.884L31.4076 39.1097Z" fill="#17A14B"/>
<path d="M31.3062 28.6543L40.6468 40.2038L34.0075 45.6919L24.667 34.1423L31.3062 28.6543Z" fill="#17A14B"/>
</g>
<defs>
<clipPath id="clip0_430_10515">
<rect width="101.593" height="54" fill="white" transform="translate(0.703125)"/>
</clipPath>
</defs>
</svg>
