<svg width="808" height="943" viewBox="0 0 808 943" fill="none" xmlns="http://www.w3.org/2000/svg">
<path d="M718.617 932.516C764.5 932.516 801.693 894.66 801.693 847.964C801.693 801.266 764.5 763.411 718.617 763.411C672.736 763.411 635.543 801.266 635.543 847.964C635.543 894.66 672.736 932.516 718.617 932.516Z" fill="#13823C"/>
<path d="M42.356 219.162C10.0629 290.216 1.56341 370.09 18.1611 446.533C34.7587 522.977 75.5378 591.768 134.242 642.355C192.947 692.942 266.334 722.534 343.151 726.587C419.968 730.642 495.971 708.937 559.502 664.802L480.243 546.62C442.124 573.1 396.522 586.124 350.432 583.692C304.343 581.258 260.31 563.504 225.087 533.151C189.864 502.799 165.397 461.524 155.439 415.659C145.48 369.792 150.579 321.867 169.955 279.234L42.356 219.162Z" fill="#13823C" fill-opacity="0.44"/>
<path d="M532.322 681.895C594.984 646.387 645.475 592.22 677.015 526.664C708.555 461.107 719.637 387.299 708.772 315.147C697.905 242.994 665.613 175.953 616.228 123.021C566.844 70.0898 502.731 33.8002 432.496 19.0253C362.262 4.25061 289.266 11.6975 223.311 40.3663C157.356 69.0348 101.595 117.554 63.5159 179.411C25.436 241.266 6.86002 313.496 10.2811 386.408C13.7021 459.319 38.9563 529.419 82.654 587.3L194.133 500.119C167.915 465.39 152.764 423.329 150.711 379.581C148.658 335.835 159.804 292.496 182.651 255.384C205.499 218.27 238.955 189.158 278.529 171.958C318.101 154.755 361.9 150.287 404.04 159.153C446.18 168.017 484.648 189.791 514.279 221.551C543.911 253.311 563.285 293.536 569.804 336.826C576.323 380.117 569.675 424.402 550.75 463.737C531.828 503.071 501.532 535.57 463.935 556.874L532.322 681.895Z" fill="#13823C"/>
<path d="M530.569 500.994L691.102 700.826L576.994 795.783L416.461 595.949L530.569 500.994Z" fill="#13823C"/>
</svg>
